<svg xmlns="http://www.w3.org/2000/svg" width="200px" height="250px" viewBox="2 -10 500 640">
    <defs>
        <style>
            #svg-path {
                fill: #000;
                stroke: #fff;
                stroke-width: 5;
                stroke-miterlimit:5;
            
                stroke-dasharray: 3095;
                stroke-dashoffset: 0;
                animation: dash 8s linear forwards infinite;
            }
            
            @-webkit-keyframes dash {
                0%, 100% {
                    stroke-dashoffset: 3095;
                }
                25%, 75% {
                    stroke-dashoffset: 0;
                }
                50% {
                    stroke-dashoffset: -3095;
                }
            }
        </style>
    </defs>
    <path id="svg-path" d="m 124.354,-0.40937 c -15.159,0.044 -30.8992,0.49258 -47.2396,1.3669 l -2.3896,0.127 -72.9172,65.97508 0.02,6.5445 1.1618,464.61295 85.4684,81.37 c 89.6612,-1.03258 193.6504,-7.88708 275.5022,-51.64695 81.8519,-43.75997 140.5751,-125.53073 137.7499,-271.27193 -1.3148,-67.82154 -19.5028,-146.81332 -81.9494,-206.32064 -54.6405,-52.0689 -142.5481,-88.59702 -280.4367,-90.66779 -4.9248,-0.074 -9.9128,-0.1038 -14.966,-0.089 z m 1.9792,13.59669 c 142.9476,-0.1192 230.836,36.22922 284.1169,87.00216 59.0676,56.28774 76.4686,131.13768 77.7406,196.74092 2.7532,142.05194 -52.4416,217.2537 -130.5871,259.03216 -78.1194,41.76456 -180.165,49.02194 -269.216,50.05154 l -2.2198,-453.56122 57.3048,0.25736 4.3278,386.30416 6.8036,-0.1214 c 125.8236,-2.26638 186.7464,-35.85267 231.5007,-87.80862 31.69,-36.78952 45.058,-83.38422 43.9514,-149.56824 -1.6924,-101.21997 -42.6316,-175.48987 -131.6401,-210.95902 -49.7418,-19.82171 -112.5534,-25.99831 -192.436,-25.99001 -2.5766,2.6e-4 -5.1714,0.008 -7.7838,0.02 -23.5952,0.1164 -48.6682,0.74186 -75.2818,1.68312 l 57.2654,-51.85045 c 15.9888,-0.8171 31.3656,-1.2197 46.1534,-1.2321 z m -20.3818,65.02214 c 79.1504,0.0752 140.5026,6.243 187.4768,24.96192 84.4225,33.64165 121.4785,100.80273 123.1131,198.57202 1.0748,64.2825 -11.3954,106.4888 -40.662,140.46474 -41.9333,48.68101 -96.0251,79.62328 -214.7143,82.88548 l -0.5754,-51.3538 c 65.5674,-0.8515 116.8344,-14.77784 151.7136,-43.34503 36.0326,-29.51181 53.4836,-74.54702 50.6966,-133.16493 -2.0262,-60.15852 -28.7934,-100.69879 -68.3226,-124.99832 -37.8876,-23.29076 -86.9282,-32.25935 -137.837,-33.00371 v -0.0272 l -84.2594,-0.37662 2.1998,449.04067 -58.2936,-55.49496 -1.1294,-452.21056 c 29.4656,-1.09258 57.1894,-1.83816 82.8784,-1.93764 2.5904,-0.01 5.162,-0.014 7.7154,-0.014 z m 51.0502,74.68664 c 49.2774,0.78308 95.968,9.60984 130.6182,30.91032 36.2594,22.28959 59.99,57.4746 61.8756,113.93748 v 0.0478 0.0476 c 2.6554,55.67905 -13.2004,95.38858 -45.741,122.04027 -31.4238,25.73705 -79.5782,39.26491 -143.086,40.15621 z"/>
</svg>
